<?xml version="1.0" encoding="utf-8"?>
<!-- Generator: Adobe Illustrator 22.0.1, SVG Export Plug-In . SVG Version: 6.00 Build 0)  -->
<svg version="1.1" id="Layer_1" xmlns="http://www.w3.org/2000/svg" xmlns:xlink="http://www.w3.org/1999/xlink" x="0px" y="0px"
	 viewBox="0 0 512 512" style="enable-background:new 0 0 512 512;" xml:space="preserve">
<style type="text/css">
	.st0{fill:none;stroke:#000000;stroke-width:10;stroke-miterlimit:10;}
</style>
<title></title>
<g id="icomoon-ignore">
</g>
<path d="M217.5,120.5L101.1,236.9c-9.1,9.1-9.1,23.8,0,32.9l116.4,116.4c9.1,9.1,23.8,9.1,32.9,0s9.1-23.8,0-32.9l-76.7-76.7H397
	c12.9,0,23.3-10.4,23.3-23.3c0-12.9-10.4-23.3-23.3-23.3H173.8l76.7-76.7c4.5-4.5,6.8-10.5,6.8-16.5c0-6-2.3-11.9-6.8-16.5
	C241.3,111.4,226.6,111.4,217.5,120.5L217.5,120.5z"/>
<circle class="st0" cx="257.3" cy="253.4" r="238.5"/>
</svg>
