<?xml version="1.0" encoding="utf-8"?>
<!-- Generator: Adobe Illustrator 21.1.0, SVG Export Plug-In . SVG Version: 6.00 Build 0)  -->
<svg version="1.1" id="Layer_1" xmlns="http://www.w3.org/2000/svg" xmlns:xlink="http://www.w3.org/1999/xlink" x="0px" y="0px"
	 viewBox="0 0 512 512" style="enable-background:new 0 0 512 512;" xml:space="preserve">
<title></title>
<g id="icomoon-ignore">
</g>
<path d="M64,160v320c0,17.6,14.4,32,32,32h288c17.6,0,32-14.4,32-32V160H64z"/>
<path d="M424,73H320V33c0-13.2-10.8-24-24-24H184c-13.2,0-24,10.8-24,24v40H56c-13.2,0-24,10.8-24,24v40h416V97
	C448,83.8,437.2,73,424,73z M288,73h-96V41.4h96V73z"/>
</svg>
