<!-- Generated by IcoMoon.io -->
<svg version="1.1" xmlns="http://www.w3.org/2000/svg" width="768" height="768" viewBox="0 0 768 768">
<title></title>
<g id="icomoon-ignore">
</g>
<path fill="#000" d="M384 128c-141.152 0-256 114.848-256 256s114.848 256 256 256 256-114.848 256-256-114.848-256-256-256zM224 384c0-26.624 7.168-51.328 18.688-73.44l214.752 214.752c-22.112 11.52-46.816 18.688-73.44 18.688-88.224 0-160-71.776-160-160zM525.312 457.44l-214.752-214.752c22.112-11.52 46.816-18.688 73.44-18.688 88.224 0 160 71.776 160 160 0 26.624-7.168 51.328-18.688 73.44z"></path>
</svg>
