<?xml version="1.0" encoding="utf-8"?>
<!-- Generator: Adobe Illustrator 22.0.1, SVG Export Plug-In . SVG Version: 6.00 Build 0)  -->
<svg version="1.1" id="Layer_1" xmlns="http://www.w3.org/2000/svg" xmlns:xlink="http://www.w3.org/1999/xlink" x="0px" y="0px"
	 viewBox="0 0 1024 1024" style="enable-background:new 0 0 1024 1024;" xml:space="preserve">
<title></title>
<g id="icomoon-ignore">
</g>
<g>
	<path d="M262,830.2h-80v-80c0-8.8-7.2-16-16-16c-8.8,0-16,7.2-16,16v96c0,8.8,7.2,16,16,16h96c8.8,0,16-7.2,16-16
		S270.8,830.2,262,830.2z"/>
	<path d="M358,190.2h96c8.8,0,16-7.2,16-16c0-8.8-7.2-16-16-16h-96c-8.8,0-16,7.2-16,16C342,183,349.2,190.2,358,190.2z"/>
	<path d="M550,190.2h96c8.8,0,16-7.2,16-16c0-8.8-7.2-16-16-16h-96c-8.8,0-16,7.2-16,16C534,183,541.2,190.2,550,190.2z"/>
	<path d="M454,830.2h-96c-8.8,0-16,7.2-16,16s7.2,16,16,16h96c8.8,0,16-7.2,16-16S462.8,830.2,454,830.2z"/>
	<path d="M166,478.2c8.8,0,16-7.2,16-16v-96c0-8.8-7.2-16-16-16c-8.8,0-16,7.2-16,16v96C150,471,157.2,478.2,166,478.2z"/>
	<path d="M166,670.2c8.8,0,16-7.2,16-16v-96c0-8.8-7.2-16-16-16c-8.8,0-16,7.2-16,16v96C150,663,157.2,670.2,166,670.2z"/>
	<path d="M262,158.2h-96c-8.8,0-16,7.2-16,16v96c0,8.8,7.2,16,16,16c8.8,0,16-7.2,16-16v-80h80c8.8,0,16-7.2,16-16
		C278,165.4,270.8,158.2,262,158.2z"/>
	<path d="M838,158.2h-96c-8.8,0-16,7.2-16,16c0,8.8,7.2,16,16,16h80v80c0,8.8,7.2,16,16,16c8.8,0,16-7.2,16-16v-96
		C854,165.4,846.8,158.2,838,158.2z"/>
	<path d="M838,350.2c-8.8,0-16,7.2-16,16v96c0,8.8,7.2,16,16,16c8.8,0,16-7.2,16-16v-96C854,357.4,846.8,350.2,838,350.2z"/>
	<path d="M646,830.2h-96c-8.8,0-16,7.2-16,16s7.2,16,16,16h96c8.8,0,16-7.2,16-16S654.8,830.2,646,830.2z"/>
	<path d="M838,542.2c-8.8,0-16,7.2-16,16v96c0,8.8,7.2,16,16,16c8.8,0,16-7.2,16-16v-96C854,549.4,846.8,542.2,838,542.2z"/>
	<path d="M838,734.2c-8.8,0-16,7.2-16,16v80h-80c-8.8,0-16,7.2-16,16s7.2,16,16,16h96c8.8,0,16-7.2,16-16v-96
		C854,741.4,846.8,734.2,838,734.2z"/>
	<polygon points="544.7,339.5 459.3,339.5 459.3,467.5 331.3,467.5 331.3,552.9 459.3,552.9 459.3,680.9 544.7,680.9 544.7,552.9 
		672.7,552.9 672.7,467.5 544.6,467.6 	"/>
</g>
</svg>
