<?xml version="1.0" encoding="utf-8"?>
<!-- Generator: Adobe Illustrator 22.0.1, SVG Export Plug-In . SVG Version: 6.00 Build 0)  -->
<svg version="1.1" id="Layer_1" xmlns="http://www.w3.org/2000/svg" xmlns:xlink="http://www.w3.org/1999/xlink" x="0px" y="0px"
	 viewBox="0 0 1024 1024" style="enable-background:new 0 0 1024 1024;" xml:space="preserve">
<title></title>
<g id="icomoon-ignore">
</g>
<path d="M848,864h-96c-8.8,0-16-7.2-16-16s7.2-16,16-16h80v-80c0-8.8,7.2-16,16-16c8.8,0,16,7.2,16,16v96
	C864,856.8,856.8,864,848,864z M848,672c-8.8,0-16-7.2-16-16v-96c0-8.8,7.2-16,16-16c8.8,0,16,7.2,16,16v96
	C864,664.8,856.8,672,848,672z M848,480c-8.8,0-16-7.2-16-16v-96c0-8.8,7.2-16,16-16c8.8,0,16,7.2,16,16v96
	C864,472.8,856.8,480,848,480z M848,288c-8.8,0-16-7.2-16-16v-80h-80c-8.8,0-16-7.2-16-16s7.2-16,16-16h96c8.8,0,16,7.2,16,16v96
	C864,280.8,856.8,288,848,288z M469.3,673.7c-5.9,5.9-15.5,5.9-21.4,0l-32.1-32.1c-0.1-0.1,0-0.2-0.1-0.3l-102-102.8
	c-5.9-5.9-5.9-15.5,0-21.4l32.1-32.1c5.9-5.9,15.5-5.9,21.4,0l91.5,92.2l192.4-192.4c5.9-5.9,15.5-5.9,21.4,0l32.1,32.1
	c6,5.9,6,15.5,0,21.4L469.3,673.7L469.3,673.7z M656,192h-96c-8.8,0-16-7.2-16-16s7.2-16,16-16h96c8.8,0,16,7.2,16,16
	S664.8,192,656,192z M464,192h-96c-8.8,0-16-7.2-16-16s7.2-16,16-16h96c8.8,0,16,7.2,16,16S472.8,192,464,192z M272,864h-96
	c-8.8,0-16-7.2-16-16v-96c0-8.8,7.2-16,16-16s16,7.2,16,16v80h80c8.8,0,16,7.2,16,16S280.8,864,272,864z M272,192h-80v80
	c0,8.8-7.2,16-16,16s-16-7.2-16-16v-96c0-8.8,7.2-16,16-16h96c8.8,0,16,7.2,16,16S280.8,192,272,192z M176,352c8.8,0,16,7.2,16,16
	v96c0,8.8-7.2,16-16,16s-16-7.2-16-16v-96C160,359.2,167.2,352,176,352z M176,544c8.8,0,16,7.2,16,16v96c0,8.8-7.2,16-16,16
	s-16-7.2-16-16v-96C160,551.2,167.2,544,176,544z M368,832h96c8.8,0,16,7.2,16,16s-7.2,16-16,16h-96c-8.8,0-16-7.2-16-16
	S359.2,832,368,832z M560,832h96c8.8,0,16,7.2,16,16s-7.2,16-16,16h-96c-8.8,0-16-7.2-16-16S551.2,832,560,832z"/>
</svg>
