<?xml version="1.0" encoding="utf-8"?>
<!-- Generator: Adobe Illustrator 22.0.1, SVG Export Plug-In . SVG Version: 6.00 Build 0)  -->
<svg version="1.1" id="Layer_1" xmlns="http://www.w3.org/2000/svg" xmlns:xlink="http://www.w3.org/1999/xlink" x="0px" y="0px"
	 viewBox="0 0 1366 768" style="enable-background:new 0 0 1366 768;" xml:space="preserve">
<style type="text/css">
	.st0{fill:#F2F2F3;}
	.st1{clip-path:url(#SVGID_2_);fill:#F2F2F3;}
	.st2{clip-path:url(#SVGID_4_);fill:#F2F2F3;}
	.st3{clip-path:url(#SVGID_6_);fill:#F2F2F3;}
</style>
<rect x="522" y="342" width="133" height="133"/>
<g>
	<path class="st0" d="M637.2,422.5c-5.7-9.9-2.3-22.5,7.7-28.3l-10.7-18.5c-3.1,1.8-6.6,2.8-10.4,2.8c-11.4,0-20.7-9.3-20.7-20.8
		h-21.4c0,3.5-0.9,7.1-2.8,10.4c-5.7,9.9-18.4,13.2-28.3,7.5L540,394.2c3.1,1.7,5.7,4.3,7.6,7.6c5.7,9.9,2.3,22.5-7.6,28.3
		l10.7,18.5c3-1.8,6.6-2.8,10.3-2.8c11.4,0,20.6,9.3,20.7,20.7h21.4c0-3.5,0.9-7.1,2.8-10.3c5.7-9.9,18.3-13.2,28.3-7.5l10.7-18.5
		C641.8,428.3,639.1,425.8,637.2,422.5L637.2,422.5z M592.5,434.1c-12.2,0-22-9.9-22-22c0-12.2,9.9-22,22-22s22,9.9,22,22
		C614.5,424.2,604.6,434.1,592.5,434.1z"/>
	<g>
		<defs>
			<rect id="SVGID_1_" x="584" y="401.6" width="16.9" height="21"/>
		</defs>
		<clipPath id="SVGID_2_">
			<use xlink:href="#SVGID_1_"  style="overflow:visible;"/>
		</clipPath>
		<path class="st1" d="M600.7,419.4c0.1,0.1,0.1,0.3,0.2,0.4c0,0.2,0,0.4-0.1,0.6c-0.1,0.2-0.2,0.4-0.4,0.5l-0.8,0.6
			c-0.3,0.2-0.7,0.4-1,0.6c-0.3,0.1-0.7,0.3-1.1,0.3c-0.6,0.1-1.2,0.1-1.8,0.1c-0.6-0.1-1.2-0.3-1.8-0.5c-0.6-0.3-1.2-0.6-1.8-1
			c-0.6-0.4-1.1-0.9-1.6-1.5c-0.3-0.3-0.6-0.7-1-1.1c-0.3-0.3-0.6-0.8-1-1.3c-0.4-0.5-0.8-1-1.2-1.6c-0.4-0.6-0.8-1.1-1-1.6
			c-0.3-0.5-0.5-0.8-0.6-1.2c-0.2-0.4-0.3-0.7-0.4-0.9c-0.3-0.5-0.5-1-0.6-1.5c-0.2-0.5-0.3-1-0.4-1.5c-0.1-0.6-0.2-1.3-0.2-1.9
			c0-0.6,0.1-1.2,0.3-1.8c0.2-0.6,0.4-1.1,0.7-1.6c0.3-0.5,0.8-0.9,1.3-1.3l0.8-0.6c0.1-0.1,0.3-0.1,0.4-0.2c0.2,0,0.4,0,0.6,0.1
			c0.2,0.1,0.4,0.2,0.5,0.4l2.5,3.6c0.1,0.1,0.2,0.3,0.2,0.4c0,0.2,0,0.4,0,0.6c-0.1,0.2-0.2,0.4-0.4,0.5l-1.6,1.2
			c-0.2,0.2-0.4,0.4-0.5,0.6c-0.1,0.2-0.1,0.5-0.1,0.7c0,0.2,0.1,0.4,0.2,0.5l4.3,6.2c0.2,0.2,0.4,0.4,0.6,0.5
			c0.2,0.1,0.5,0.1,0.7,0.1c0.2,0,0.3-0.1,0.5-0.2l1.6-1.2c0.1-0.1,0.3-0.1,0.4-0.2c0.2,0,0.4,0,0.6,0.1c0.2,0.1,0.4,0.2,0.5,0.4
			L600.7,419.4z"/>
	</g>
</g>
<rect x="712" y="342" width="133" height="133"/>
<g>
	<path class="st0" d="M827.1,422.7c-5.7-9.9-2.3-22.5,7.7-28.3l-10.7-18.5c-3.1,1.8-6.6,2.8-10.4,2.8c-11.4,0-20.7-9.3-20.7-20.8
		h-21.4c0,3.5-0.9,7.1-2.8,10.4c-5.7,9.9-18.4,13.2-28.3,7.5l-10.7,18.5c3.1,1.7,5.7,4.3,7.6,7.6c5.7,9.9,2.3,22.5-7.6,28.3
		l10.7,18.5c3-1.8,6.6-2.8,10.3-2.8c11.4,0,20.6,9.3,20.7,20.7h21.4c0-3.5,0.9-7.1,2.8-10.3c5.7-9.9,18.3-13.2,28.3-7.5l10.7-18.5
		C831.6,428.5,829,425.9,827.1,422.7L827.1,422.7z M782.3,434.2c-12.2,0-22-9.9-22-22c0-12.2,9.9-22,22-22s22,9.9,22,22
		C804.3,424.4,794.5,434.2,782.3,434.2z"/>
	<g>
		<defs>
			<rect id="SVGID_3_" x="772.2" y="401.6" width="20.3" height="21.2"/>
		</defs>
		<clipPath id="SVGID_4_">
			<use xlink:href="#SVGID_3_"  style="overflow:visible;"/>
		</clipPath>
		<path class="st2" d="M780.6,413.6l2.4,2.8c-0.2,0.5-0.3,1-0.3,1.5c0,2.7,2.1,4.9,4.7,4.9c0.6,0,1.2-0.1,1.8-0.3l-3.6-3.7l2.8-2.7
			l3.6,3.8c0.2-0.5,0.4-1.1,0.4-1.8c0-2.7-2.1-4.9-4.7-4.9c-0.7,0-1.4,0.1-2,0.4l-2.3-2.7l-1.3-1.4l-0.8-1c0.3-0.6,0.5-1.3,0.5-2
			c0-2.7-2.1-4.9-4.7-4.9c-0.6,0-1.2,0.1-1.8,0.3l3.6,3.7l-2.8,2.7l-3.6-3.8c-0.2,0.5-0.4,1.1-0.4,1.8c0,2.7,2.1,4.9,4.7,4.9
			c0.5,0,1-0.1,1.5-0.2l0.9,1.2L780.6,413.6z"/>
	</g>
</g>
<rect x="892" y="342" width="133" height="133"/>
<g>
	<path class="st0" d="M1007.5,422.5c-5.7-9.9-2.3-22.5,7.7-28.3l-10.7-18.5c-3.1,1.8-6.6,2.8-10.4,2.8c-11.4,0-20.7-9.3-20.7-20.8
		h-21.4c0,3.5-0.9,7.1-2.8,10.4c-5.7,9.9-18.4,13.2-28.3,7.5l-10.7,18.5c3.1,1.7,5.7,4.3,7.6,7.6c5.7,9.9,2.3,22.5-7.6,28.3
		l10.7,18.5c3-1.8,6.6-2.8,10.3-2.8c11.4,0,20.6,9.3,20.7,20.7h21.4c0-3.5,0.9-7.1,2.8-10.3c5.7-9.9,18.3-13.2,28.3-7.5l10.7-18.5
		C1012.1,428.3,1009.4,425.7,1007.5,422.5L1007.5,422.5z M962.7,434.1c-12.2,0-22-9.9-22-22c0-12.2,9.9-22,22-22s22,9.9,22,22
		C984.8,424.2,974.9,434.1,962.7,434.1z"/>
	<g>
		<path class="st0" d="M967.8,418.2l-1.6-1.4h-1.1v1.2l2.2,2.2h1l3.5-4.1l-1.2-1.4L967.8,418.2z M967.9,412.7l-1.6-1.4h-1.1v1.2
			l2.2,2.2h1l3.4-4.1l-1.2-1.4L967.9,412.7z M970.7,403.9l-2.8,3.4l-1.6-1.4h-1.1v1.2l2.2,2.2h1l3.4-4.1L970.7,403.9z"/>
		<g>
			<defs>
				<rect id="SVGID_5_" x="953.6" y="403.9" width="18.4" height="16.3"/>
			</defs>
			<clipPath id="SVGID_6_">
				<use xlink:href="#SVGID_5_"  style="overflow:visible;"/>
			</clipPath>
			<path class="st3" d="M964.7,414.1l-1.3-1.3l-0.8-1c0.3-0.6,0.4-1.3,0.4-2c0-2.6-2.1-4.7-4.7-4.7c-0.6,0-1.2,0.1-1.7,0.3l3.6,3.6
				l-2.7,2.7l-3.6-3.6c-0.2,0.5-0.3,1.1-0.3,1.7c0,2.6,2.1,4.7,4.7,4.7c0.5,0,1-0.1,1.5-0.2l0.9,1.1l1.3,1.3l2.4,2.7"/>
		</g>
	</g>
</g>
</svg>
