<svg xmlns="http://www.w3.org/2000/svg" viewBox="0 0 70.46 87.54"><title>enquiry</title><path d="M69.62,74.43a5.21,5.21,0,0,1,.76,1.75,4.71,4.71,0,0,1-.22,2.52,4.48,4.48,0,0,1-1.58,2.1l-3.5,2.55a20.49,20.49,0,0,1-4.21,2.39,23.64,23.64,0,0,1-4.48,1.37,23.29,23.29,0,0,1-7.6.22,28,28,0,0,1-7.63-2.17,35.63,35.63,0,0,1-7.34-4.34,44.16,44.16,0,0,1-6.63-6.25c-1.27-1.3-2.64-2.8-4.09-4.49-1.23-1.43-2.66-3.16-4.25-5.21S15.53,60.56,13.78,58s-3.19-4.74-4.32-6.67-2-3.53-2.67-4.81A34.92,34.92,0,0,1,5,42.65a43.79,43.79,0,0,1-2.63-6A44.78,44.78,0,0,1,.73,30.48,37.46,37.46,0,0,1,0,22.59a28.18,28.18,0,0,1,1.11-7.41A22.92,22.92,0,0,1,4.22,8.63a21.08,21.08,0,0,1,5.24-5.3L12.92.83A4.57,4.57,0,0,1,14.64.09,4.4,4.4,0,0,1,19.17,2L29.76,17.11a4.45,4.45,0,0,1,.74,1.73,4.64,4.64,0,0,1-.19,2.58A4.32,4.32,0,0,1,28.7,23.5l-6.81,4.93A5,5,0,0,0,20,30.9a5.55,5.55,0,0,0,.66,5.1L38.53,61.74a5.16,5.16,0,0,0,2.5,2A5.35,5.35,0,0,0,46,63.09l6.83-5a4.5,4.5,0,0,1,1.71-.73,4.36,4.36,0,0,1,2.49.23,4.47,4.47,0,0,1,2,1.61Z"/></svg>