<!-- Generated by IcoMoon.io -->
<svg version="1.1" xmlns="http://www.w3.org/2000/svg" width="768" height="768" viewBox="0 0 768 768">
<title></title>
<g id="icomoon-ignore">
</g>
<path fill="#000" d="M384 448c44.192 0 84.192-17.92 113.152-46.88 28.928-28.928 46.848-68.928 46.848-113.12s-17.92-84.192-46.848-113.12c-28.96-28.96-68.96-46.88-113.152-46.88s-84.192 17.92-113.152 46.88c-28.928 28.928-46.848 68.928-46.848 113.12s17.92 84.192 46.848 113.12c28.96 28.96 68.96 46.88 113.152 46.88z"></path>
<path fill="#000" d="M640 480c22.080 0 42.080-8.928 56.576-23.392s23.424-34.464 23.424-56.608c0-22.080-8.928-42.080-23.424-56.576s-34.496-23.424-56.576-23.424c-22.112 0-42.112 8.928-56.608 23.424-14.464 14.496-23.392 34.496-23.392 56.576 0 22.112 8.928 42.112 23.392 56.608s34.496 23.392 56.608 23.392z"></path>
<path fill="#000" d="M640 498.88c-42.592 0-74.624 12.992-93.344 30.976-35.68-29.344-92.096-49.856-162.656-49.856-72.512 0-127.84 20.736-162.944 50.048-19.072-18.080-51.456-31.168-93.056-31.168-70.016 0-112 34.88-112 69.824 0 17.44 41.984 34.944 112 34.944 19.328 0 36.672-1.632 51.936-4.256-0.32 2.912-1.28 5.76-1.28 8.64 0 32 76.992 64 205.344 64 120.384 0 205.344-32 205.344-64 0-2.72-0.352-5.44-0.64-8.16 14.816 2.336 31.84 3.776 51.296 3.776 65.632 0 112-17.504 112-34.944 0-34.944-43.936-69.824-112-69.824z"></path>
<path fill="#000" d="M128 480c22.080 0 42.080-8.928 56.576-23.424s23.424-34.496 23.424-56.576c0-22.048-8.928-42.048-23.424-56.576-14.496-14.464-34.496-23.424-56.576-23.424-22.112 0-42.112 8.96-56.608 23.424-14.464 14.528-23.392 34.528-23.392 56.576 0 22.080 8.928 42.080 23.392 56.576 14.496 14.496 34.496 23.424 56.608 23.424z"></path>
</svg>
