<!-- Generated by IcoMoon.io -->
<svg version="1.1" xmlns="http://www.w3.org/2000/svg" width="768" height="768" viewBox="0 0 768 768">
<title></title>
<g id="icomoon-ignore">
</g>
<path fill="#000" d="M384 32c-195.2 0-352 156.8-352 352s156.8 352 352 352 352-156.8 352-352-156.8-352-352-352zM384 672c-160 0-288-128-288-288s128-288 288-288c160 0 288 128 288 288s-128 288-288 288z"></path>
<path fill="#000" d="M384 352c-19.2 0-32 12.8-32 32v128c0 19.2 12.8 32 32 32s32-12.8 32-32v-128c0-19.2-12.8-32-32-32z"></path>
<path fill="#000" d="M361.6 233.6c-6.4 6.4-9.6 12.8-9.6 22.4s3.2 16 9.6 22.4c6.4 6.4 12.8 9.6 22.4 9.6s16-3.2 22.4-9.6c6.4-6.4 9.6-12.8 9.6-22.4s-3.2-16-9.6-22.4c-12.8-12.8-32-12.8-44.8 0z"></path>
</svg>
