<!-- Generated by IcoMoon.io -->
<svg version="1.1" xmlns="http://www.w3.org/2000/svg" width="640" height="640" viewBox="0 0 640 640">
<title></title>
<g id="icomoon-ignore">
</g>
<path fill="#000" d="M470.080 85.152c-60.608-44.128-103.744-43.168-120.128-40.512-4.608 0.736-8.48 3.392-11.2 7.136l-220.256 303.904c-8.864 12.224-13.984 26.752-14.784 41.824l-9.472 179.968c-0.672 12.96 12.224 22.336 24.32 17.696l168.192-64.32c14.176-5.44 26.496-14.88 35.392-27.168l220.16-303.808c2.848-3.936 4-8.736 3.2-13.536-2.688-16.832-15.584-57.664-75.424-101.184zM287.264 494.88l-65.376 25.248c-2.56 0.992-5.408 0.192-7.072-1.984-8.416-10.72-18.432-21.344-34.4-32.96-15.968-11.584-29.152-17.856-41.92-22.592-2.56-0.96-4.192-3.392-4.032-6.144l3.904-69.952 17.568-24.16c0 0 39.328-5.408 90.656 31.936 51.264 37.312 58.272 76.416 58.272 76.416l-17.6 24.192z"></path>
</svg>
