<svg xmlns="http://www.w3.org/2000/svg" viewBox="0 0 189.99 119"><defs><style>.cls-1{fill:#013a65;}.cls-2{fill:#fff;}</style></defs><title>speechbubble</title><g id="Layer_2" data-name="Layer 2"><g id="Layer_1-2" data-name="Layer 1"><path class="cls-1" d="M134.5,28.87a52.47,52.47,0,0,0-17.09,2.79A43.6,43.6,0,0,0,104,39C96.83,44.8,92.87,52.3,92.87,60.08s4,15.28,11.13,21.12a43.6,43.6,0,0,0,13.4,7.31A52.46,52.46,0,0,0,134.5,91.3a54.94,54.94,0,0,0,6.9-.44,13.87,13.87,0,0,1,11.56,4Q154.12,96,155.33,97a35.07,35.07,0,0,1,.37-3.92,13.87,13.87,0,0,1,6.09-9.53,34.69,34.69,0,0,0,10.73-10.87,24.22,24.22,0,0,0,3.6-12.59c0-7.79-4-15.28-11.13-21.12a43.6,43.6,0,0,0-13.4-7.31,52.47,52.47,0,0,0-17.09-2.79Zm0-13.87C165.15,15,190,35.18,190,60.08c0,14.15-8,26.78-20.58,35a20.93,20.93,0,0,0-.23,3.11,21.51,21.51,0,0,0,11.39,19.39l2.48,1.38c-13.76-.31-28-2.45-39.91-14.37a68.54,68.54,0,0,1-8.65.55C103.85,105.17,79,85,79,60.08S103.85,15,134.5,15h0Z"/><polygon class="cls-2" points="38.99 12.22 85.99 15.22 118.99 37.22 112.99 67.22 95.99 85.22 59.99 93.22 36.99 97.22 27.99 87.22 17.99 72.22 11.99 42.22 18.99 23.22 38.99 12.22"/><path class="cls-1" d="M63.5,15.87a60,60,0,0,0-19.56,3.19,49.88,49.88,0,0,0-15.33,8.36C20.4,34.1,15.87,42.68,15.87,51.59A27.71,27.71,0,0,0,20,66,39.69,39.69,0,0,0,32.27,78.43a15.87,15.87,0,0,1,7,10.9,40.13,40.13,0,0,1,.42,4.48q1.39-1.15,2.71-2.48A15.87,15.87,0,0,1,55.6,86.81a62.86,62.86,0,0,0,7.9.5,60,60,0,0,0,19.56-3.19,49.88,49.88,0,0,0,15.33-8.36c8.21-6.67,12.73-15.25,12.73-24.16S106.6,34.1,98.38,27.43a49.89,49.89,0,0,0-15.33-8.36A60,60,0,0,0,63.5,15.87ZM63.5,0h0C98.56,0,127,23.1,127,51.59s-28.43,51.59-63.5,51.59a78.42,78.42,0,0,1-9.9-.63C40,116.19,23.68,118.64,7.94,119l2.84-1.57a24.61,24.61,0,0,0,13-22.18,24,24,0,0,0-.27-3.56C9.18,82.23,0,67.78,0,51.59,0,23.1,28.43,0,63.5,0Z"/></g></g></svg>