<svg xmlns="http://www.w3.org/2000/svg" viewBox="0 0 20 20"><defs><style>.a,.b{fill:none;stroke:#000;stroke-miterlimit:10;}.a{stroke-width:0.67px;}.b{stroke-width:1.33px;}</style></defs><title>supply-sewer</title><path d="M10,1.33h0a8.67,8.67,0,0,1,8.62,7.91A8.67,8.67,0,0,1,10,18.67,8.67,8.67,0,0,1,10,1.33M10,0a10,10,0,1,0,6.42,2.34A10,10,0,0,0,10,0Z" transform="translate(0 0)"/><line class="a" x1="3.67" y1="4.45" x2="16.88" y2="15.63"/><line class="a" x1="1.37" y1="7.65" x2="13.81" y2="18.1"/><line class="a" x1="6.88" y1="1.88" x2="18.75" y2="11.88"/><path class="b" d="M3.75,16.88c-.22.58,5.63-9.38,12.5-12.5" transform="translate(0 0)"/></svg>