<svg xmlns="http://www.w3.org/2000/svg" xmlns:xlink="http://www.w3.org/1999/xlink" viewBox="0 0 19.5 12.98"><defs><style>.a{fill:none;}.b{clip-path:url(#a);}</style><clipPath id="a"><rect class="a" width="19.5" height="12.98"/></clipPath></defs><title>supplyType</title><g class="b"><path d="M.46,5.89h1a.46.46,0,0,0,.46-.46V5H17.59v.43a.45.45,0,0,0,.46.46h1a.46.46,0,0,0,.46-.46v-5A.47.47,0,0,0,19,0h-1a.46.46,0,0,0-.46.46V.89H1.91V.46A.47.47,0,0,0,1.45,0h-1A.47.47,0,0,0,0,.46v5a.46.46,0,0,0,.46.46"/><path d="M.46,13h1a.47.47,0,0,0,.46-.46v-.43H17.59v.43a.46.46,0,0,0,.46.46h1a.47.47,0,0,0,.46-.46v-5A.46.46,0,0,0,19,7.09h-1a.45.45,0,0,0-.46.45V8H1.91V7.54a.46.46,0,0,0-.46-.45h-1A.46.46,0,0,0,0,7.54v5A.47.47,0,0,0,.46,13"/></g></svg>