<svg xmlns="http://www.w3.org/2000/svg" viewBox="0 0 23.12 20"><defs><style>.a{stroke:#666;stroke-miterlimit:10;stroke-width:2.11px;}</style></defs><title>task-check</title><path class="a" d="M11.62,5.66"/><path class="a" d="M25.3,5.66"/><path class="a" d="M11.62,12"/><path class="a" d="M25.3,12"/><path d="M16.17,15.86l1.9,1.68,3.38-4.21L23,15l-4.23,5H17.56l-2.68-2.64v-1.5Zm.15-6.67,1.9,1.68,3.39-4.21,1.51,1.68-4.23,5H17.72L15,10.7V9.19Zm0-6.67,1.9,1.68L21.61,0l1.51,1.67-4.23,5H17.72L15,4V2.52Z"/><path d="M13.63,12.56,12,10.92l-.95-1.18a5.94,5.94,0,0,0,.53-2.42A5.79,5.79,0,0,0,5.79,1.53a6,6,0,0,0-2.12.39L8.11,6.35,4.83,9.63.4,5.2A5.71,5.71,0,0,0,0,7.32,5.78,5.78,0,0,0,5.79,13.1a5.59,5.59,0,0,0,1.79-.28L8.71,14.2l1.65,1.64,3,3.37"/></svg>