<svg xmlns="http://www.w3.org/2000/svg" viewBox="0 0 25.78 18"><title>task-send</title><path d="M13.88,11.23,12.21,9.57l-1-1.21a6,6,0,0,0,.54-2.47A5.89,5.89,0,0,0,5.89,0,5.68,5.68,0,0,0,3.74.41L8.25,4.92,4.91,8.25.41,3.74A5.68,5.68,0,0,0,0,5.89a5.89,5.89,0,0,0,5.89,5.89,5.73,5.73,0,0,0,1.82-.28l1.16,1.4,1.67,1.67,3,3.43"/><path d="M16.68,3h9.1V4.7h-8L22.8,9.76a1,1,0,0,0,1.42,0l1.56-1.58v2l-1.32,1.28a1.32,1.32,0,0,1-1.9,0L16.89,5.56v7.77a.77.77,0,0,0,.85.86h8v1.73h-9.1a1.62,1.62,0,0,1-1.49-1.51V4.48A1.62,1.62,0,0,1,16.68,3Z"/></svg>