<?xml version="1.0" encoding="utf-8"?>
<!-- Generator: Adobe Illustrator 22.0.1, SVG Export Plug-In . SVG Version: 6.00 Build 0)  -->
<svg version="1.1" xmlns="http://www.w3.org/2000/svg" xmlns:xlink="http://www.w3.org/1999/xlink" x="0px" y="0px"
	 viewBox="0 0 800 800" style="enable-background:new 0 0 800 800;" xml:space="preserve">
<style type="text/css">
	.st0{fill:#FFFFFF;}
	.st1{fill:#4A666C;}
	.st2{fill:#FFFFFF;stroke:#4A666C;stroke-width:3;stroke-miterlimit:10;}
	.st3{fill:#4A666C;stroke:#FFFFFF;stroke-width:3;stroke-linecap:round;stroke-linejoin:round;stroke-miterlimit:10;}
	.st4{fill:#FFFFFF;stroke:#4A666C;stroke-width:2.7398;stroke-miterlimit:10;}
	.st5{fill:#4A666C;stroke:#FFFFFF;stroke-width:1.0065;stroke-miterlimit:10;}
	.st6{fill:#FFFFFF;stroke:#4A666C;stroke-width:3;stroke-linecap:round;stroke-linejoin:round;stroke-miterlimit:10;}
	.st7{fill:none;stroke:#4A666C;stroke-width:6;stroke-miterlimit:10;}
	.st8{display:none;}
	.st9{display:inline;fill:none;stroke:#4A666C;stroke-width:3;stroke-miterlimit:10;}
	.st10{fill:#4A666C;stroke:#FFFFFF;stroke-width:3;stroke-miterlimit:10;}
	.st11{fill:none;stroke:#4A666C;stroke-width:3;stroke-linecap:round;stroke-miterlimit:10;}
	.st12{fill:#4A666C;stroke:#FFFFFF;stroke-width:8;stroke-miterlimit:10;}
	.st13{fill:none;stroke:#4A666C;stroke-width:3;stroke-linecap:round;stroke-linejoin:round;stroke-miterlimit:10;}
	.st14{fill:none;stroke:#4A666C;stroke-width:6;stroke-linecap:round;stroke-linejoin:round;stroke-miterlimit:10;}
	.st15{fill:none;stroke:#FFFFFF;stroke-width:3;stroke-linecap:round;stroke-linejoin:round;stroke-miterlimit:10;}
</style>
<g id="Background">
	<rect class="st0" width="800" height="800"/>
</g>
<g id="Objects">
	<g>
		<g>
			<g>
				<path class="st1" d="M288.5,781.6v-0.3c-0.3,0.4-0.7,0.7-1,1c-0.3,0.3-0.7,0.4-1.1,0.6c-0.4,0.1-0.8,0.2-1.3,0.2
					c-0.6,0-1.2-0.1-1.7-0.4c-0.5-0.3-1-0.6-1.4-1.1c-0.4-0.5-0.7-1.1-0.9-1.7c-0.2-0.7-0.3-1.4-0.3-2.1c0-1.6,0.4-2.9,1.2-3.8
					c0.8-0.9,1.8-1.4,3.1-1.4c0.7,0,1.4,0.1,1.9,0.4c0.5,0.3,1,0.7,1.5,1.2v-3.8c0-0.5,0.1-0.9,0.3-1.2c0.2-0.3,0.5-0.4,0.9-0.4
					c0.4,0,0.7,0.1,0.9,0.4c0.2,0.3,0.3,0.6,0.3,1.1v11.4c0,0.5-0.1,0.9-0.3,1.1c-0.2,0.2-0.5,0.4-0.9,0.4c-0.4,0-0.6-0.1-0.9-0.4
					C288.6,782.4,288.5,782.1,288.5,781.6z M283.4,777.8c0,0.7,0.1,1.3,0.3,1.8c0.2,0.5,0.5,0.9,0.9,1.1c0.4,0.3,0.8,0.4,1.2,0.4
					c0.5,0,0.9-0.1,1.2-0.4c0.4-0.2,0.7-0.6,0.9-1.1c0.2-0.5,0.3-1.1,0.3-1.8c0-0.7-0.1-1.3-0.3-1.8c-0.2-0.5-0.5-0.9-0.9-1.1
					c-0.4-0.3-0.8-0.4-1.3-0.4c-0.5,0-0.9,0.1-1.3,0.4c-0.4,0.3-0.7,0.7-0.9,1.2C283.5,776.5,283.4,777.1,283.4,777.8z"/>
				<path class="st1" d="M299.9,778.5h-5.1c0,0.6,0.1,1.1,0.4,1.6c0.2,0.4,0.5,0.8,0.9,1c0.4,0.2,0.8,0.3,1.3,0.3
					c0.3,0,0.6,0,0.9-0.1c0.3-0.1,0.5-0.2,0.7-0.3c0.2-0.2,0.5-0.3,0.7-0.5c0.2-0.2,0.5-0.4,0.8-0.7c0.1-0.1,0.3-0.2,0.6-0.2
					c0.3,0,0.5,0.1,0.6,0.2c0.2,0.1,0.2,0.3,0.2,0.6c0,0.2-0.1,0.5-0.3,0.8c-0.2,0.3-0.5,0.6-0.8,0.9c-0.4,0.3-0.8,0.5-1.4,0.7
					c-0.6,0.2-1.2,0.3-1.9,0.3c-1.7,0-3-0.5-3.9-1.4c-0.9-0.9-1.4-2.2-1.4-3.9c0-0.8,0.1-1.5,0.3-2.1c0.2-0.7,0.6-1.2,1-1.7
					c0.4-0.5,1-0.8,1.6-1.1c0.6-0.3,1.3-0.4,2.1-0.4c1,0,1.9,0.2,2.6,0.6c0.7,0.4,1.3,1,1.6,1.7c0.4,0.7,0.5,1.4,0.5,2.1
					c0,0.7-0.2,1.1-0.6,1.3C301.1,778.4,300.6,778.5,299.9,778.5z M294.9,777h4.7c-0.1-0.9-0.3-1.6-0.7-2c-0.4-0.4-1-0.7-1.6-0.7
					c-0.6,0-1.2,0.2-1.6,0.7C295.2,775.4,294.9,776.1,294.9,777z"/>
				<path class="st1" d="M311.7,779.7c0,0.7-0.2,1.3-0.5,1.8c-0.3,0.5-0.9,0.9-1.5,1.2c-0.7,0.3-1.5,0.4-2.5,0.4
					c-0.9,0-1.7-0.1-2.4-0.4c-0.7-0.3-1.2-0.6-1.5-1.1c-0.3-0.4-0.5-0.9-0.5-1.3c0-0.3,0.1-0.5,0.3-0.7c0.2-0.2,0.5-0.3,0.8-0.3
					c0.3,0,0.5,0.1,0.6,0.2s0.3,0.3,0.4,0.6c0.3,0.5,0.6,0.8,1,1c0.4,0.2,0.9,0.3,1.5,0.3c0.5,0,0.9-0.1,1.3-0.3
					c0.3-0.2,0.5-0.5,0.5-0.8c0-0.5-0.2-0.8-0.5-1c-0.3-0.2-0.9-0.4-1.7-0.6c-0.9-0.2-1.6-0.5-2.2-0.7c-0.6-0.2-1-0.6-1.3-1
					c-0.3-0.4-0.5-0.9-0.5-1.5c0-0.5,0.2-1,0.5-1.5c0.3-0.5,0.8-0.8,1.4-1.1c0.6-0.3,1.3-0.4,2.2-0.4c0.7,0,1.3,0.1,1.8,0.2
					c0.5,0.1,1,0.3,1.3,0.6c0.4,0.2,0.6,0.5,0.8,0.8c0.2,0.3,0.3,0.6,0.3,0.8c0,0.3-0.1,0.5-0.3,0.7c-0.2,0.2-0.5,0.3-0.9,0.3
					c-0.3,0-0.5-0.1-0.7-0.2c-0.2-0.2-0.4-0.4-0.6-0.7c-0.2-0.3-0.4-0.5-0.7-0.6c-0.3-0.2-0.6-0.2-1.1-0.2c-0.5,0-0.9,0.1-1.2,0.3
					c-0.3,0.2-0.5,0.4-0.5,0.7c0,0.3,0.1,0.5,0.3,0.7c0.2,0.2,0.5,0.3,0.9,0.4c0.4,0.1,0.9,0.3,1.6,0.4c0.8,0.2,1.5,0.4,2,0.7
					c0.5,0.3,0.9,0.6,1.2,1C311.6,778.8,311.7,779.2,311.7,779.7z"/>
				<path class="st1" d="M314.4,771.3c-0.4,0-0.7-0.1-0.9-0.3c-0.3-0.2-0.4-0.5-0.4-0.9c0-0.4,0.1-0.7,0.4-0.9
					c0.3-0.2,0.6-0.4,0.9-0.4c0.3,0,0.6,0.1,0.9,0.3c0.3,0.2,0.4,0.5,0.4,0.9c0,0.4-0.1,0.7-0.4,0.9
					C315,771.2,314.7,771.3,314.4,771.3z M315.7,774v7.5c0,0.5-0.1,0.9-0.4,1.2c-0.2,0.3-0.6,0.4-0.9,0.4c-0.4,0-0.7-0.1-0.9-0.4
					c-0.2-0.3-0.4-0.7-0.4-1.2v-7.4c0-0.5,0.1-0.9,0.4-1.2c0.2-0.3,0.5-0.4,0.9-0.4c0.4,0,0.7,0.1,0.9,0.4
					C315.5,773.2,315.7,773.6,315.7,774z"/>
				<path class="st1" d="M327,774.4v7.5c0,0.9-0.1,1.6-0.3,2.2c-0.2,0.6-0.5,1.1-0.9,1.5c-0.4,0.4-0.9,0.7-1.6,0.9
					c-0.7,0.2-1.5,0.3-2.4,0.3c-0.9,0-1.7-0.1-2.4-0.4c-0.7-0.3-1.2-0.6-1.6-1c-0.4-0.4-0.6-0.8-0.6-1.2c0-0.3,0.1-0.6,0.3-0.8
					c0.2-0.2,0.5-0.3,0.8-0.3c0.4,0,0.7,0.2,1,0.5c0.1,0.2,0.3,0.3,0.4,0.5c0.1,0.2,0.3,0.3,0.5,0.4c0.2,0.1,0.4,0.2,0.7,0.3
					c0.3,0.1,0.5,0.1,0.9,0.1c0.7,0,1.2-0.1,1.6-0.3c0.4-0.2,0.6-0.4,0.8-0.8c0.1-0.3,0.2-0.7,0.3-1.1c0-0.4,0-1,0.1-1.8
					c-0.4,0.6-0.9,1-1.4,1.3c-0.5,0.3-1.1,0.4-1.9,0.4c-0.9,0-1.6-0.2-2.3-0.7c-0.6-0.4-1.1-1.1-1.5-1.9c-0.3-0.8-0.5-1.7-0.5-2.8
					c0-0.8,0.1-1.5,0.3-2.1c0.2-0.6,0.5-1.2,0.9-1.6c0.4-0.4,0.8-0.8,1.4-1c0.5-0.2,1.1-0.3,1.7-0.3c0.7,0,1.4,0.1,1.9,0.4
					c0.5,0.3,1,0.7,1.5,1.3V774c0-0.4,0.1-0.8,0.3-1c0.2-0.2,0.5-0.4,0.9-0.4c0.5,0,0.8,0.2,1,0.5C326.9,773.4,327,773.8,327,774.4z
					 M319.5,777.7c0,1.1,0.2,1.8,0.7,2.4c0.5,0.5,1.1,0.8,1.8,0.8c0.4,0,0.8-0.1,1.2-0.3c0.4-0.2,0.7-0.6,0.9-1
					c0.2-0.5,0.4-1,0.4-1.7c0-1.1-0.2-1.9-0.7-2.5c-0.5-0.6-1.1-0.9-1.8-0.9c-0.7,0-1.3,0.3-1.8,0.8
					C319.7,775.9,319.5,776.7,319.5,777.7z"/>
				<path class="st1" d="M331.2,774v0.3c0.5-0.6,1-1,1.5-1.3c0.5-0.3,1.2-0.4,1.9-0.4c0.7,0,1.3,0.2,1.8,0.4
					c0.5,0.3,0.9,0.7,1.2,1.3c0.2,0.3,0.3,0.7,0.3,1c0.1,0.4,0.1,0.8,0.1,1.4v4.8c0,0.5-0.1,0.9-0.4,1.2c-0.2,0.3-0.5,0.4-0.9,0.4
					c-0.4,0-0.7-0.1-0.9-0.4c-0.2-0.3-0.4-0.7-0.4-1.2v-4.3c0-0.9-0.1-1.5-0.4-2c-0.2-0.5-0.7-0.7-1.4-0.7c-0.5,0-0.9,0.1-1.3,0.4
					s-0.7,0.7-0.8,1.1c-0.1,0.4-0.2,1.1-0.2,2.2v3.2c0,0.5-0.1,0.9-0.4,1.2c-0.2,0.3-0.6,0.4-0.9,0.4c-0.4,0-0.7-0.1-0.9-0.4
					c-0.2-0.3-0.4-0.7-0.4-1.2V774c0-0.5,0.1-0.9,0.3-1.1c0.2-0.2,0.5-0.4,0.9-0.4c0.2,0,0.4,0.1,0.6,0.2c0.2,0.1,0.3,0.3,0.4,0.5
					C331.1,773.4,331.2,773.7,331.2,774z"/>
				<path class="st1" d="M346.9,778.5h-5.1c0,0.6,0.1,1.1,0.4,1.6c0.2,0.4,0.5,0.8,0.9,1c0.4,0.2,0.8,0.3,1.3,0.3
					c0.3,0,0.6,0,0.9-0.1c0.3-0.1,0.5-0.2,0.7-0.3c0.2-0.2,0.5-0.3,0.7-0.5c0.2-0.2,0.5-0.4,0.8-0.7c0.1-0.1,0.3-0.2,0.6-0.2
					c0.3,0,0.5,0.1,0.6,0.2c0.2,0.1,0.2,0.3,0.2,0.6c0,0.2-0.1,0.5-0.3,0.8c-0.2,0.3-0.5,0.6-0.8,0.9c-0.4,0.3-0.8,0.5-1.4,0.7
					c-0.6,0.2-1.2,0.3-1.9,0.3c-1.7,0-3-0.5-3.9-1.4c-0.9-0.9-1.4-2.2-1.4-3.9c0-0.8,0.1-1.5,0.3-2.1c0.2-0.7,0.6-1.2,1-1.7
					c0.4-0.5,1-0.8,1.6-1.1s1.3-0.4,2.1-0.4c1,0,1.9,0.2,2.6,0.6c0.7,0.4,1.3,1,1.6,1.7c0.4,0.7,0.5,1.4,0.5,2.1
					c0,0.7-0.2,1.1-0.6,1.3C348.1,778.4,347.6,778.5,346.9,778.5z M341.9,777h4.7c-0.1-0.9-0.3-1.6-0.7-2c-0.4-0.4-1-0.7-1.6-0.7
					c-0.6,0-1.2,0.2-1.6,0.7C342.2,775.4,341.9,776.1,341.9,777z"/>
				<path class="st1" d="M357.5,781.6v-0.3c-0.3,0.4-0.7,0.7-1,1c-0.3,0.3-0.7,0.4-1.1,0.6c-0.4,0.1-0.8,0.2-1.3,0.2
					c-0.6,0-1.2-0.1-1.7-0.4c-0.5-0.3-1-0.6-1.4-1.1c-0.4-0.5-0.7-1.1-0.9-1.7c-0.2-0.7-0.3-1.4-0.3-2.1c0-1.6,0.4-2.9,1.2-3.8
					c0.8-0.9,1.8-1.4,3.1-1.4c0.7,0,1.4,0.1,1.9,0.4c0.5,0.3,1,0.7,1.5,1.2v-3.8c0-0.5,0.1-0.9,0.3-1.2c0.2-0.3,0.5-0.4,0.9-0.4
					c0.4,0,0.7,0.1,0.9,0.4c0.2,0.3,0.3,0.6,0.3,1.1v11.4c0,0.5-0.1,0.9-0.3,1.1c-0.2,0.2-0.5,0.4-0.9,0.4c-0.4,0-0.6-0.1-0.9-0.4
					C357.6,782.4,357.5,782.1,357.5,781.6z M352.4,777.8c0,0.7,0.1,1.3,0.3,1.8c0.2,0.5,0.5,0.9,0.9,1.1c0.4,0.3,0.8,0.4,1.2,0.4
					c0.5,0,0.9-0.1,1.2-0.4c0.4-0.2,0.7-0.6,0.9-1.1c0.2-0.5,0.3-1.1,0.3-1.8c0-0.7-0.1-1.3-0.3-1.8c-0.2-0.5-0.5-0.9-0.9-1.1
					c-0.4-0.3-0.8-0.4-1.3-0.4c-0.5,0-0.9,0.1-1.3,0.4c-0.4,0.3-0.7,0.7-0.9,1.2C352.5,776.5,352.4,777.1,352.4,777.8z"/>
				<path class="st1" d="M368.1,770.2v4c0.5-0.5,1-0.9,1.5-1.2c0.5-0.3,1.1-0.4,1.9-0.4c0.9,0,1.6,0.2,2.3,0.6
					c0.6,0.4,1.2,1,1.5,1.8c0.4,0.8,0.5,1.7,0.5,2.8c0,0.8-0.1,1.5-0.3,2.2c-0.2,0.7-0.5,1.2-0.9,1.7c-0.4,0.5-0.8,0.9-1.4,1.1
					c-0.5,0.3-1.1,0.4-1.8,0.4c-0.4,0-0.8,0-1.1-0.1c-0.4-0.1-0.7-0.2-0.9-0.4c-0.2-0.2-0.5-0.3-0.6-0.5c-0.2-0.2-0.4-0.4-0.7-0.7
					v0.3c0,0.5-0.1,0.9-0.4,1.1c-0.2,0.3-0.5,0.4-0.9,0.4c-0.4,0-0.7-0.1-0.9-0.4c-0.2-0.3-0.3-0.6-0.3-1.1v-11.3
					c0-0.5,0.1-0.9,0.3-1.2c0.2-0.3,0.5-0.4,0.9-0.4c0.4,0,0.7,0.1,0.9,0.4C368,769.3,368.1,769.7,368.1,770.2z M368.2,777.9
					c0,1,0.2,1.8,0.7,2.4c0.5,0.6,1.1,0.8,1.9,0.8c0.7,0,1.2-0.3,1.7-0.9c0.5-0.6,0.7-1.4,0.7-2.4c0-0.7-0.1-1.3-0.3-1.8
					c-0.2-0.5-0.5-0.9-0.8-1.1c-0.4-0.3-0.8-0.4-1.3-0.4c-0.5,0-0.9,0.1-1.3,0.4c-0.4,0.3-0.7,0.7-0.9,1.2
					C368.3,776.6,368.2,777.2,368.2,777.9z"/>
				<path class="st1" d="M379.1,783.4l0.2-0.6l-3.2-8c-0.2-0.5-0.3-0.8-0.3-1c0-0.2,0.1-0.4,0.2-0.6c0.1-0.2,0.3-0.3,0.5-0.5
					c0.2-0.1,0.4-0.2,0.6-0.2c0.4,0,0.7,0.1,0.8,0.4c0.2,0.2,0.4,0.6,0.5,1l2.2,6.4l2.1-5.9c0.2-0.5,0.3-0.9,0.4-1.1
					c0.1-0.3,0.3-0.5,0.4-0.5c0.1-0.1,0.4-0.1,0.6-0.1c0.2,0,0.4,0.1,0.6,0.2c0.2,0.1,0.3,0.2,0.4,0.4c0.1,0.2,0.1,0.4,0.1,0.6
					c0,0.1-0.1,0.3-0.1,0.5c-0.1,0.2-0.1,0.4-0.2,0.7l-3.4,8.9c-0.3,0.8-0.6,1.4-0.9,1.8c-0.3,0.4-0.6,0.8-1.1,1
					c-0.5,0.2-1.1,0.4-1.9,0.4c-0.8,0-1.3-0.1-1.7-0.2c-0.4-0.2-0.6-0.5-0.6-0.9c0-0.3,0.1-0.5,0.3-0.7c0.2-0.2,0.4-0.2,0.8-0.2
					c0.1,0,0.3,0,0.4,0.1c0.2,0,0.3,0.1,0.4,0.1c0.3,0,0.5,0,0.7-0.1c0.2-0.1,0.3-0.2,0.5-0.5C378.8,784.2,379,783.8,379.1,783.4z"
					/>
			</g>
			<g>
				<path class="st1" d="M416.7,772.8h0.6V772c0-0.8,0.1-1.5,0.3-1.9c0.2-0.5,0.6-0.8,1-1c0.5-0.2,1.2-0.3,2-0.3
					c1.5,0,2.3,0.4,2.3,1.1c0,0.2-0.1,0.4-0.2,0.6c-0.2,0.2-0.3,0.3-0.6,0.3c-0.1,0-0.3,0-0.5-0.1c-0.2,0-0.5-0.1-0.6-0.1
					c-0.5,0-0.8,0.1-0.9,0.4c-0.1,0.3-0.2,0.7-0.2,1.2v0.6h0.6c1,0,1.5,0.3,1.5,0.9c0,0.4-0.1,0.7-0.4,0.8c-0.3,0.1-0.6,0.2-1.1,0.2
					h-0.6v6.9c0,0.5-0.1,0.9-0.4,1.2c-0.2,0.3-0.6,0.4-0.9,0.4c-0.4,0-0.7-0.1-0.9-0.4c-0.2-0.3-0.4-0.7-0.4-1.2v-6.9h-0.7
					c-0.4,0-0.7-0.1-0.9-0.3c-0.2-0.2-0.3-0.4-0.3-0.7C415.4,773.1,415.8,772.8,416.7,772.8"/>
				<path class="st1" d="M425.2,779.3v2.2c0,0.5-0.1,0.9-0.4,1.2c-0.2,0.3-0.6,0.4-0.9,0.4c-0.4,0-0.7-0.1-0.9-0.4
					c-0.2-0.3-0.4-0.7-0.4-1.2v-7.2c0-1.2,0.4-1.7,1.3-1.7c0.4,0,0.7,0.1,0.9,0.4c0.2,0.3,0.3,0.7,0.3,1.2c0.3-0.5,0.6-0.9,0.9-1.2
					c0.3-0.3,0.8-0.4,1.3-0.4c0.5,0,1.1,0.1,1.6,0.4c0.5,0.3,0.8,0.6,0.8,1.1c0,0.3-0.1,0.6-0.3,0.8c-0.2,0.2-0.5,0.3-0.7,0.3
					c-0.1,0-0.3-0.1-0.7-0.2c-0.4-0.1-0.7-0.2-1-0.2c-0.4,0-0.7,0.1-0.9,0.3c-0.2,0.2-0.4,0.5-0.6,0.9c-0.1,0.4-0.2,0.9-0.3,1.4
					C425.2,777.9,425.2,778.6,425.2,779.3"/>
				<path class="st1" d="M437.1,778.5H432c0,0.6,0.1,1.1,0.4,1.6c0.2,0.4,0.5,0.8,0.9,1c0.4,0.2,0.8,0.3,1.3,0.3
					c0.3,0,0.6,0,0.8-0.1c0.3-0.1,0.5-0.2,0.7-0.3c0.2-0.2,0.5-0.3,0.7-0.5c0.2-0.2,0.5-0.4,0.8-0.7c0.1-0.1,0.3-0.2,0.6-0.2
					c0.3,0,0.5,0.1,0.6,0.2c0.2,0.1,0.2,0.3,0.2,0.6c0,0.2-0.1,0.5-0.3,0.8c-0.2,0.3-0.5,0.6-0.8,0.9c-0.4,0.3-0.8,0.5-1.4,0.7
					c-0.6,0.2-1.2,0.3-1.9,0.3c-1.7,0-3-0.5-3.9-1.4c-0.9-1-1.4-2.2-1.4-3.9c0-0.8,0.1-1.5,0.3-2.1c0.2-0.7,0.6-1.2,1-1.7
					c0.4-0.5,1-0.8,1.6-1.1c0.6-0.3,1.3-0.4,2.1-0.4c1,0,1.9,0.2,2.6,0.6c0.7,0.4,1.3,1,1.6,1.7c0.4,0.7,0.5,1.4,0.5,2.1
					c0,0.6-0.2,1.1-0.6,1.3C438.3,778.4,437.8,778.5,437.1,778.5 M432,777h4.7c-0.1-0.9-0.3-1.5-0.7-2c-0.4-0.4-1-0.7-1.6-0.7
					c-0.6,0-1.2,0.2-1.6,0.7C432.4,775.4,432.1,776.1,432,777"/>
				<path class="st1" d="M447.9,778.5h-5.1c0,0.6,0.1,1.1,0.4,1.6c0.2,0.4,0.5,0.8,0.9,1c0.4,0.2,0.8,0.3,1.3,0.3
					c0.3,0,0.6,0,0.8-0.1c0.3-0.1,0.5-0.2,0.8-0.3c0.2-0.2,0.5-0.3,0.7-0.5c0.2-0.2,0.5-0.4,0.8-0.7c0.1-0.1,0.3-0.2,0.6-0.2
					c0.3,0,0.5,0.1,0.7,0.2c0.2,0.1,0.2,0.3,0.2,0.6c0,0.2-0.1,0.5-0.3,0.8c-0.2,0.3-0.5,0.6-0.8,0.9c-0.4,0.3-0.8,0.5-1.4,0.7
					c-0.6,0.2-1.2,0.3-1.9,0.3c-1.7,0-3-0.5-3.9-1.4c-0.9-1-1.4-2.2-1.4-3.9c0-0.8,0.1-1.5,0.3-2.1c0.2-0.7,0.6-1.2,1-1.7
					c0.4-0.5,1-0.8,1.6-1.1c0.6-0.3,1.4-0.4,2.1-0.4c1,0,1.9,0.2,2.6,0.6c0.7,0.4,1.3,1,1.6,1.7c0.4,0.7,0.5,1.4,0.5,2.1
					c0,0.6-0.2,1.1-0.6,1.3C449.1,778.4,448.6,778.5,447.9,778.5 M442.8,777h4.7c-0.1-0.9-0.3-1.5-0.7-2c-0.4-0.4-1-0.7-1.6-0.7
					c-0.6,0-1.2,0.2-1.6,0.7C443.2,775.4,442.9,776.1,442.8,777"/>
				<path class="st1" d="M453.6,774v0.3c0.5-0.6,1-1,1.5-1.3c0.5-0.3,1.1-0.4,1.8-0.4c0.8,0,1.5,0.2,2.2,0.6c0.7,0.4,1.2,1,1.6,1.8
					c0.4,0.8,0.6,1.7,0.6,2.8c0,0.8-0.1,1.5-0.3,2.2c-0.2,0.7-0.5,1.2-0.9,1.7c-0.4,0.4-0.9,0.8-1.4,1c-0.5,0.2-1.1,0.4-1.7,0.4
					c-0.7,0-1.4-0.1-1.9-0.4c-0.5-0.3-1-0.7-1.4-1.3v3.9c0,1.1-0.4,1.7-1.2,1.7c-0.5,0-0.8-0.1-1-0.4c-0.2-0.3-0.2-0.7-0.2-1.3V774
					c0-0.5,0.1-0.9,0.3-1.1c0.2-0.2,0.5-0.4,0.9-0.4c0.4,0,0.7,0.1,0.9,0.4C453.5,773.2,453.6,773.5,453.6,774 M458.7,777.8
					c0-0.7-0.1-1.3-0.3-1.8c-0.2-0.5-0.5-0.9-0.9-1.1c-0.4-0.3-0.8-0.4-1.2-0.4c-0.7,0-1.3,0.3-1.8,0.8c-0.5,0.6-0.7,1.4-0.7,2.5
					c0,1,0.2,1.8,0.7,2.4c0.5,0.6,1.1,0.9,1.8,0.9c0.4,0,0.8-0.1,1.2-0.4c0.4-0.3,0.7-0.6,0.9-1.1
					C458.6,779.1,458.7,778.5,458.7,777.8"/>
				<path class="st1" d="M463.9,771.3c-0.4,0-0.7-0.1-0.9-0.3c-0.3-0.2-0.4-0.5-0.4-0.9c0-0.4,0.1-0.7,0.4-0.9
					c0.3-0.2,0.6-0.4,0.9-0.4c0.3,0,0.6,0.1,0.9,0.3c0.3,0.2,0.4,0.5,0.4,0.9c0,0.4-0.1,0.7-0.4,0.9
					C464.5,771.2,464.2,771.3,463.9,771.3 M465.2,774v7.5c0,0.5-0.1,0.9-0.4,1.2c-0.3,0.3-0.6,0.4-0.9,0.4c-0.4,0-0.7-0.1-0.9-0.4
					c-0.2-0.3-0.4-0.7-0.4-1.2v-7.4c0-0.5,0.1-0.9,0.4-1.2c0.2-0.3,0.5-0.4,0.9-0.4c0.4,0,0.7,0.1,0.9,0.4
					C465,773.2,465.2,773.6,465.2,774"/>
				<path class="st1" d="M473.5,781.9l-2.3-3.8l-1.4,1.3v2.1c0,0.5-0.1,0.9-0.4,1.1c-0.3,0.3-0.6,0.4-0.9,0.4
					c-0.4,0-0.7-0.1-0.9-0.4c-0.2-0.3-0.3-0.7-0.3-1.2v-11.1c0-0.6,0.1-1,0.3-1.3c0.2-0.3,0.5-0.5,1-0.5c0.4,0,0.7,0.1,0.9,0.4
					c0.2,0.3,0.4,0.7,0.4,1.2v6.3l2.9-3.1c0.4-0.4,0.6-0.6,0.8-0.8c0.2-0.1,0.4-0.2,0.7-0.2c0.3,0,0.6,0.1,0.8,0.3
					c0.2,0.2,0.3,0.5,0.3,0.8c0,0.4-0.4,0.9-1.1,1.5l-1.4,1.3l2.7,4.2c0.2,0.3,0.3,0.5,0.4,0.7c0.1,0.2,0.1,0.3,0.1,0.5
					c0,0.4-0.1,0.7-0.3,1c-0.2,0.2-0.5,0.4-0.9,0.4c-0.3,0-0.6-0.1-0.7-0.3C474.1,782.7,473.8,782.3,473.5,781.9"/>
				<path class="st1" d="M479.2,783.1c-0.4,0-0.7-0.1-1-0.4c-0.3-0.2-0.4-0.6-0.4-1.1c0-0.4,0.1-0.7,0.4-1c0.3-0.3,0.6-0.4,1-0.4
					c0.4,0,0.7,0.1,1,0.4c0.3,0.3,0.4,0.6,0.4,1c0,0.5-0.1,0.8-0.4,1.1C479.9,783,479.5,783.1,479.2,783.1"/>
				<path class="st1" d="M492.1,779.9c0,0.3-0.1,0.7-0.3,1c-0.2,0.4-0.5,0.7-0.9,1.1c-0.4,0.3-0.9,0.6-1.5,0.8
					c-0.6,0.2-1.3,0.3-2,0.3c-1.6,0-2.9-0.5-3.8-1.4c-0.9-0.9-1.3-2.2-1.3-3.8c0-1.1,0.2-2,0.6-2.8c0.4-0.8,1-1.4,1.8-1.9
					c0.8-0.4,1.7-0.7,2.8-0.7c0.7,0,1.3,0.1,1.9,0.3c0.6,0.2,1,0.5,1.4,0.8c0.4,0.3,0.7,0.6,0.9,1c0.2,0.4,0.3,0.7,0.3,1
					c0,0.3-0.1,0.6-0.3,0.8c-0.2,0.2-0.5,0.3-0.8,0.3c-0.2,0-0.4-0.1-0.5-0.2c-0.1-0.1-0.3-0.3-0.5-0.5c-0.3-0.5-0.6-0.8-1-1.1
					c-0.3-0.2-0.8-0.4-1.3-0.4c-0.8,0-1.4,0.3-1.9,0.9c-0.5,0.6-0.7,1.4-0.7,2.5c0,0.5,0.1,0.9,0.2,1.3c0.1,0.4,0.3,0.8,0.5,1
					c0.2,0.3,0.5,0.5,0.8,0.7c0.3,0.2,0.7,0.2,1.1,0.2c0.5,0,1-0.1,1.3-0.4c0.4-0.2,0.7-0.6,1-1.1c0.2-0.3,0.3-0.5,0.5-0.7
					c0.2-0.2,0.4-0.3,0.7-0.3c0.3,0,0.6,0.1,0.8,0.4C492,779.3,492.1,779.6,492.1,779.9"/>
				<path class="st1" d="M503.2,777.8c0,0.8-0.1,1.5-0.4,2.1c-0.2,0.7-0.6,1.2-1,1.7c-0.5,0.5-1,0.8-1.6,1.1
					c-0.6,0.2-1.3,0.4-2.1,0.4c-0.8,0-1.5-0.1-2.1-0.4c-0.6-0.2-1.2-0.6-1.6-1.1c-0.5-0.5-0.8-1-1.1-1.7c-0.2-0.6-0.4-1.4-0.4-2.1
					c0-0.8,0.1-1.5,0.4-2.2c0.2-0.7,0.6-1.2,1-1.7c0.5-0.5,1-0.8,1.6-1.1c0.6-0.2,1.3-0.4,2.1-0.4c0.8,0,1.5,0.1,2.1,0.4
					c0.6,0.3,1.2,0.6,1.6,1.1c0.5,0.5,0.8,1,1,1.7C503.1,776.3,503.2,777,503.2,777.8 M500.6,777.8c0-1.1-0.2-1.9-0.7-2.5
					c-0.5-0.6-1.1-0.9-1.9-0.9c-0.5,0-1,0.1-1.3,0.4c-0.4,0.3-0.7,0.6-0.9,1.2c-0.2,0.5-0.3,1.1-0.3,1.8c0,0.7,0.1,1.3,0.3,1.8
					c0.2,0.5,0.5,0.9,0.9,1.2c0.4,0.3,0.8,0.4,1.4,0.4c0.8,0,1.4-0.3,1.9-0.9C500.4,779.7,500.6,778.9,500.6,777.8"/>
				<path class="st1" d="M513.1,778v3.4c0,0.5-0.1,1-0.4,1.2c-0.3,0.3-0.6,0.4-1,0.4c-0.4,0-0.7-0.1-1-0.4c-0.2-0.3-0.4-0.7-0.4-1.2
					v-4.1c0-0.7,0-1.2-0.1-1.5c0-0.4-0.2-0.7-0.4-0.9c-0.2-0.2-0.5-0.4-0.9-0.4c-0.9,0-1.4,0.3-1.7,0.9c-0.3,0.6-0.4,1.4-0.4,2.5
					v3.5c0,0.5-0.1,0.9-0.4,1.2c-0.2,0.3-0.6,0.4-1,0.4c-0.4,0-0.7-0.1-1-0.4c-0.3-0.3-0.4-0.7-0.4-1.2V774c0-0.5,0.1-0.9,0.3-1.1
					c0.2-0.3,0.5-0.4,0.9-0.4c0.4,0,0.7,0.1,0.9,0.4c0.2,0.2,0.4,0.6,0.4,1v0.2c0.5-0.5,0.9-0.9,1.4-1.2c0.5-0.3,1.1-0.4,1.7-0.4
					c0.7,0,1.2,0.1,1.7,0.4c0.5,0.3,0.9,0.7,1.2,1.2c0.4-0.5,0.9-0.9,1.4-1.2c0.5-0.3,1.1-0.4,1.7-0.4c0.7,0,1.3,0.1,1.8,0.4
					c0.5,0.3,0.9,0.7,1.1,1.2c0.2,0.5,0.3,1.2,0.3,2.2v5.1c0,0.5-0.1,1-0.4,1.2c-0.2,0.3-0.6,0.4-1,0.4c-0.4,0-0.7-0.1-1-0.4
					c-0.3-0.3-0.4-0.7-0.4-1.2v-4.4c0-0.6,0-1-0.1-1.3c0-0.3-0.2-0.6-0.4-0.8c-0.2-0.2-0.5-0.3-1-0.3c-0.3,0-0.7,0.1-1,0.3
					c-0.3,0.2-0.5,0.5-0.7,0.8C513.2,776.1,513.1,776.9,513.1,778"/>
			</g>
			<g>
				<path class="st1" d="M392.4,777.2C392.4,777.2,392.4,777.2,392.4,777.2C392.4,777.2,392.4,777.2,392.4,777.2z"/>
				<path class="st1" d="M392.6,778C392.6,778,392.6,778,392.6,778c0-0.2-0.1-0.5-0.1-0.7C392.5,777.5,392.5,777.8,392.6,778z"/>
				<path class="st1" d="M393.4,780.4C393.4,780.4,393.4,780.4,393.4,780.4C393.4,780.4,393.4,780.4,393.4,780.4z"/>
				<path class="st1" d="M393.3,780.3c0,0,0-0.1-0.1-0.1C393.3,780.2,393.3,780.2,393.3,780.3z"/>
				<path class="st1" d="M392.8,778.9c0.1,0.4,0.3,0.8,0.5,1.2C393.1,779.7,392.9,779.3,392.8,778.9
					C392.8,778.9,392.8,778.9,392.8,778.9z"/>
				<path class="st1" d="M402.5,767.3c0.5,0,0.9,0,1.3,0.1l0.1-0.8c0,0-1.2-0.4-2.7-0.2l-0.1-0.4c0.5-0.1,0.8-0.5,0.8-1
					c0-0.6-0.5-1.1-1.1-1.1s-1.1,0.5-1.1,1.1c0,0.5,0.4,0.9,0.8,1l0.1,0.5c-1.6,0.2-2.9,0.9-2.9,0.9l0.2,0.7c1-0.3,1.8-0.5,2.6-0.6
					C401.4,767.3,402,767.3,402.5,767.3z"/>
				<path class="st1" d="M393.4,771.1L393.4,771.1c0-0.1,0.1-0.1,0.1-0.2l-0.3-0.2l-0.5-0.4c0,0-0.8,0.7-1.4,2c0,0-0.1-0.1-0.1-0.1
					c-0.2-0.2-0.4-0.3-0.8-0.3c0,0,0,0,0,0c-0.2,0-0.3-0.1-0.4-0.1c0.1-0.1,0.1-0.3,0.1-0.4c0-0.4-0.3-0.7-0.7-0.7
					c-0.4,0-0.7,0.3-0.7,0.7c0,0.4,0.3,0.7,0.7,0.7c0.1,0,0.1,0,0.2,0c0.2,0.2,0.4,0.3,0.8,0.3c0.2,0,0.3,0,0.4,0.2
					c0.1,0.1,0.1,0.3,0.2,0.4c0,0,0,0,0,0c-0.4,1.2-0.3,2.7-0.3,2.7l1.1,0c0-0.5,0.1-1.5,0.4-2.2
					C392.7,772.1,393.4,771.1,393.4,771.1z"/>
				<path class="st1" d="M411.7,768.1c-0.4,0-0.7,0.3-0.7,0.7c0,0.1,0,0.1,0,0.2c-0.2,0.2-0.3,0.4-0.3,0.8c0,0.2,0,0.3-0.2,0.4
					c-0.1,0.1-0.2,0.1-0.3,0.1c-0.8-1.1-1.8-1.8-1.8-1.8l-0.8,0.8c0.6,0.5,1.2,1.2,1.7,2c0.4,0.6,0.8,1.3,1.1,2l1-0.5
					c0,0-0.5-1.2-1.1-2.2c0.1,0,0.2-0.1,0.3-0.2c0.2-0.2,0.3-0.4,0.3-0.8c0-0.2,0.1-0.3,0.1-0.4c0.1,0.1,0.3,0.1,0.4,0.1
					c0.4,0,0.7-0.3,0.7-0.7C412.3,768.4,412,768.1,411.7,768.1z"/>
				<path class="st1" d="M409,777.3c-1.4,0.7-3.7,1.6-6.8,2c-1.2,0.2-2.4,0.2-3.4,0.2c-1.4,0-2.6-0.1-3.6-0.2
					c-1.1-0.1-1.9-0.3-2.4-0.4c0.1,0.4,0.3,0.8,0.5,1.2c0,0,0,0,0,0c0,0,0,0.1,0.1,0.1c0,0,0,0.1,0.1,0.1c0,0,0,0,0,0
					c0.3,0.6,0.7,1.1,1.1,1.5c1.4,1.6,2.9,1.8,2.9,1.8l0,0l0,0c0,0,1.3,0.4,3.3,0.4c1.9,0,3.9-0.4,5.7-1.2c1.3-0.7,2.6-1.7,3.3-2.7
					c0.5-0.7,0.8-1.5,1-2.3c0.1-0.4,0.2-1.1,0.1-1.8C410.5,776.5,409.9,776.9,409,777.3z"/>
				<path class="st1" d="M393.9,771.4c0,0.1-0.7,0.9-1.1,2.3c-0.4,1-0.3,2.4-0.3,2.5v0c0,0.3,0,0.7,0.1,1c0,0,0,0,0,0
					c0,0,0,0.1,0,0.1c0,0.2,0.1,0.5,0.1,0.7c0.7,0.2,4.9,1.2,9.5,0.5c2.9-0.4,5.1-1.3,6.5-1.9c1.1-0.5,1.8-1,2.1-1.2
					c-0.3-1-1-2.6-1.7-3.6c-2-2.9-4.2-3.6-5.3-3.8c-0.4-0.1-0.8-0.1-1.2-0.1c-0.4,0-1,0-1.7,0.1c-0.7,0.1-1.6,0.3-2.5,0.6
					c-1.3,0.5-2.6,1.2-3.5,2l0,0C394.5,770.7,394.2,771,393.9,771.4z M406.1,770.8c1,0,1.7,0.8,1.7,1.7c0,1-0.8,1.7-1.7,1.7
					c-1,0-1.7-0.8-1.7-1.7C404.4,771.6,405.2,770.8,406.1,770.8z M397.9,770.7c1.6,0,2.8,1.3,2.8,2.8c0,1.6-1.3,2.8-2.8,2.8
					c-1.6,0-2.8-1.3-2.8-2.8C395.1,772,396.3,770.7,397.9,770.7z"/>
			</g>
		</g>
		<g>
			<g>
				<circle class="st1" cx="136.5" cy="136" r="56.2"/>
				<g>
					<path class="st2" d="M148.6,159.4h-24.3c-1.1,0-2-0.9-2-2v-11.6c0-1.1,0.9-2,2-2h24.3c1.1,0,2,0.9,2,2v11.6
						C150.6,158.5,149.7,159.4,148.6,159.4z"/>
					<path class="st2" d="M162.8,159.4h-10.1c-1.1,0-2-0.9-2-2v-11.6c0-1.1,0.9-2,2-2h10.1c1.1,0,2,0.9,2,2v11.6
						C164.8,158.5,163.9,159.4,162.8,159.4z"/>
					<path class="st2" d="M120.4,159.4h-10.1c-1.1,0-2-0.9-2-2v-11.6c0-1.1,0.9-2,2-2h10.1c1.1,0,2,0.9,2,2v11.6
						C122.4,158.5,121.5,159.4,120.4,159.4z"/>
					<path class="st2" d="M148.6,128.2h-24.3c-1.1,0-2-0.9-2-2v-11.6c0-1.1,0.9-2,2-2h24.3c1.1,0,2,0.9,2,2v11.6
						C150.6,127.3,149.7,128.2,148.6,128.2z"/>
					<path class="st2" d="M162.8,128.2h-10.1c-1.1,0-2-0.9-2-2v-11.6c0-1.1,0.9-2,2-2h10.1c1.1,0,2,0.9,2,2v11.6
						C164.8,127.3,163.9,128.2,162.8,128.2z"/>
					<path class="st2" d="M120.4,128.2h-10.1c-1.1,0-2-0.9-2-2v-11.6c0-1.1,0.9-2,2-2h10.1c1.1,0,2,0.9,2,2v11.6
						C122.4,127.3,121.5,128.2,120.4,128.2z"/>
					<path class="st2" d="M162.8,143.8h-24.3c-1.1,0-2-0.9-2-2v-11.6c0-1.1,0.9-2,2-2h24.3c1.1,0,2,0.9,2,2v11.6
						C164.8,142.9,163.9,143.8,162.8,143.8z"/>
					<path class="st2" d="M134.5,143.8h-24.3c-1.1,0-2-0.9-2-2v-11.6c0-1.1,0.9-2,2-2h24.3c1.1,0,2,0.9,2,2v11.6
						C136.5,142.9,135.6,143.8,134.5,143.8z"/>
				</g>
			</g>
			<g>
				<circle class="st1" cx="312.2" cy="136" r="56.2"/>
				<path class="st0" d="M316.8,151.3l-0.8-0.4V130v-2v-7.6l0.8-0.4c3.8-1.9,5.8-4.4,6.1-7.2c0.5-4.6-3.3-9.5-6-12.3V113h-11v-12.3
					c-4.1,4.6-6,8.8-5.4,12.3c0.8,4.5,5.4,6.7,5.5,6.7l0.9,0.4l0,1v7v2v21.3l-0.9,0.4c0,0-4.7,2.2-5.5,6.7
					c-0.6,3.5,1.3,7.7,5.4,12.3V158h11v12.8c2.7-2.8,6.5-7.7,6-12.3C322.6,155.7,320.6,153.3,316.8,151.3z"/>
			</g>
			<g>
				<circle class="st1" cx="487.8" cy="136" r="56.2"/>
				<g>
					<polygon class="st2" points="460,127.5 483.4,114.2 506,127.5 					"/>
					<g>
						<polyline class="st3" points="463.8,136.4 467.5,160.8 478.5,142.5 						"/>
						<g>
							<path class="st2" d="M454,124.5h60c0,0-10,25.7-27.5,25.7C472.4,150.2,454,150.5,454,124.5z"/>
							<polyline class="st3" points="502.9,137.6 513.4,121.5 525,121.5 							"/>
							<g>
								
									<ellipse transform="matrix(0.9227 -0.3855 0.3855 0.9227 -19.9195 202.7589)" class="st4" cx="495.6" cy="151" rx="12.2" ry="12.2"/>
								<path class="st5" d="M491.1,151c0-2.5,2-4.5,4.5-4.5s4.5,2,4.5,4.5c0,2.5-2,4.5-4.5,4.5S491.1,153.5,491.1,151z"/>
							</g>
						</g>
					</g>
				</g>
			</g>
			<g>
				<circle class="st1" cx="663.5" cy="136" r="56.2"/>
				<g>
					<rect x="639.9" y="107.9" class="st2" width="8.3" height="15.9"/>
					<rect x="639.9" y="118.1" class="st2" width="47.2" height="47.2"/>
					<polygon class="st2" points="626.1,126.5 700,126.5 663,107 					"/>
					<g>
						<rect x="649.4" y="137.5" class="st2" width="7" height="7"/>
						<rect x="670.6" y="137.5" class="st2" width="7" height="7"/>
					</g>
					<rect x="656.4" y="151.2" class="st2" width="14.2" height="14.1"/>
				</g>
			</g>
			<g>
				<circle class="st1" cx="136.5" cy="312" r="56.2"/>
				<g>
					<ellipse class="st2" cx="136.5" cy="327.5" rx="31.5" ry="13.5"/>
					<path class="st6" d="M114,325.5c0,0,15.5-45,20.5-45s23.5,45,23.5,45s-6.5,7-22,7S114,325.5,114,325.5z"/>
					<path class="st7" d="M158,311.5c0,0-6.5,7-22,7s-22-7-22-7"/>
					<path class="st7" d="M158,299.5c0,0-6.5,7-22,7s-22-7-22-7"/>
				</g>
			</g>
			<g>
				<circle class="st1" cx="312.2" cy="312" r="56.2"/>
				<g>
					<path class="st2" d="M283.1,316.4c0,0-12.1,23.6,29.4,23.6c41.5,0,27.7-23.6,27.7-23.6"/>
					<path class="st2" d="M283.1,316.4c0,0-1.6-34.1,29.4-34.1c31,0,27.7,34.1,27.7,34.1s-8.2,8.8-28.5,8.8
						C291.4,325.2,283.1,316.4,283.1,316.4z"/>
					<g class="st8">
						<path class="st9" d="M319.5,277.9c0,0-10.5,35.1,7.1,45.9"/>
						<path class="st9" d="M304.1,277.9c0,0,10.5,35.1-7.1,45.9"/>
					</g>
				</g>
			</g>
			<g>
				<circle class="st1" cx="487.8" cy="312" r="56.2"/>
				<g>
					<g>
						<path class="st0" d="M511,311.8v0.3h6.3c0-0.1,0-0.2,0-0.3c0-4.8-1.1-9.3-3.2-13.2l-5.8,2.9c-1.5-2.9-3.6-5.5-6.2-7.6l4-5.1
							c-3.5-2.8-7.7-4.8-12.2-5.7l-1.3,6.4c-3.2-0.7-6.6-0.6-9.8,0.1l-1.5-6.3c-4.5,1-8.6,3.1-12.1,6l4.2,5c-2.5,2.1-4.6,4.8-6,7.7
							l-5.9-2.8c-1.8,3.8-2.9,8.1-2.9,12.6c0,0.2,0,0.4,0,0.5l6.5-0.1c0.1,3.3,0.8,6.5,2.3,9.5l-5.8,2.8c2,4.1,4.9,7.7,8.5,10.5
							l4-5.1c2.6,2,5.6,3.4,8.8,4.1l-1.4,6.3c2.1,0.5,4.2,0.7,6.5,0.7c2.4,0,4.8-0.3,7-0.9l-1.5-6.3c3.2-0.8,6.1-2.2,8.7-4.3
							l4.1,5.1c3.5-2.8,6.4-6.5,8.3-10.7l-5.8-2.7C510.2,318.3,511,315.1,511,311.8z"/>
					</g>
					<circle class="st1" cx="487.8" cy="312" r="11.5"/>
				</g>
			</g>
			<g>
				<circle class="st1" cx="663.5" cy="312" r="56.2"/>
				<g>
					<line class="st10" x1="643.8" y1="308.6" x2="683.2" y2="333.7"/>
					<line class="st10" x1="643.8" y1="308.6" x2="683.2" y2="333.7"/>
					<line class="st10" x1="683.9" y1="308.6" x2="644.5" y2="333.7"/>
					<g>
						<path class="st2" d="M639.5,339.5v-50.7c0-2.4,1.9-4.4,4.4-4.4h0c2.4,0,4.4,1.9,4.4,4.4v50.7H639.5z"/>
					</g>
					<g>
						<path class="st2" d="M678.8,339.5v-50.7c0-2.4,1.9-4.4,4.4-4.4l0,0c2.4,0,4.4,1.9,4.4,4.4v50.7H678.8z"/>
					</g>
					<rect x="631" y="294.1" class="st2" width="64.9" height="17.4"/>
					<line class="st11" x1="653.3" y1="291.9" x2="632.7" y2="311.7"/>
					<line class="st11" x1="667.3" y1="291.9" x2="646.7" y2="311.7"/>
					<line class="st11" x1="678.1" y1="294.9" x2="660.7" y2="311.7"/>
					<line class="st11" x1="695.3" y1="291.9" x2="675.4" y2="310.9"/>
				</g>
			</g>
			<g>
				<circle class="st1" cx="136.5" cy="488" r="56.2"/>
				<g>
					<path class="st3" d="M152.2,511.1c0-2.7,4.8-10,4.8-10s4.8,7.3,4.8,10s-2.2,4.8-4.8,4.8C154.4,515.9,152.2,513.8,152.2,511.1z"
						/>
					<line class="st3" x1="136.5" y1="473" x2="136.5" y2="453"/>
					<path class="st12" d="M116,519.5V488c0-5.5,4.5-10,10-10h21c5.5,0,10,4.5,10,10v4"/>
					<path class="st2" d="M136.5,491L136.5,491c-3.3,0-6-2.7-6-6v-12.5c0-3.3,2.7-6,6-6l0,0c3.3,0,6,2.7,6,6V485
						C142.5,488.3,139.8,491,136.5,491z"/>
					<path class="st2" d="M145.8,461h-18.5c-1.5,0-2.8-1.2-2.8-2.8l0,0c0-1.5,1.2-2.8,2.8-2.8h18.5c1.5,0,2.8,1.2,2.8,2.8l0,0
						C148.5,459.8,147.3,461,145.8,461z"/>
				</g>
			</g>
			<g>
				<circle class="st1" cx="312.2" cy="488" r="56.2"/>
				<g>
					<path class="st0" d="M314.9,524.3h-7.1c-0.5,0-1-0.5-1-1v-68.5c0-0.5,0.5-1,1-1h7.1c0.5,0,1,0.5,1,1v68.5
						C315.9,523.8,315.5,524.3,314.9,524.3z"/>
					<path class="st3" d="M290,478.5c0,0-4.3-18,15.8-18h14.9l5-2h8.9v15h-9.2l-4.5-3h-15C305.8,470.5,295.6,470.5,290,478.5z"/>
				</g>
			</g>
			<g>
				<circle class="st1" cx="487.8" cy="488" r="56.2"/>
				<g>
					<path class="st3" d="M494,509.5h29c-14.5-3.2-14.7-17.8-14.7-17.8L499,499"/>
					<g>
						<path class="st0" d="M491.2,486c-0.6,0-1.2-0.4-1.4-1l-7-20H464v16.5c0,0.8-0.7,1.5-1.5,1.5H453v21h46v-18H491.2z"/>
					</g>
					<g>
						<path class="st3" d="M493.2,509.7h-33.1c-4.2,0-7.7-3.4-7.7-7.7l0,0c0-4.2,3.5-7.7,7.7-7.7h33.1c4.2,0,7.7,3.4,7.7,7.7l0,0
							C500.9,506.2,497.4,509.7,493.2,509.7z"/>
						<path class="st0" d="M463.7,501.8c0,1.5-1.2,2.8-2.8,2.8c-1.5,0-2.8-1.2-2.8-2.8c0-1.5,1.2-2.8,2.8-2.8
							C462.5,499,463.7,500.3,463.7,501.8z"/>
						<path class="st0" d="M473.9,501.8c0,1.5-1.2,2.8-2.8,2.8c-1.5,0-2.8-1.2-2.8-2.8c0-1.5,1.2-2.8,2.8-2.8
							C472.7,499,473.9,500.3,473.9,501.8z"/>
						<path class="st0" d="M484.2,501.8c0,1.5-1.2,2.8-2.8,2.8s-2.8-1.2-2.8-2.8c0-1.5,1.2-2.8,2.8-2.8S484.2,500.3,484.2,501.8z"/>
						<path class="st0" d="M494.4,501.8c0,1.5-1.2,2.8-2.8,2.8s-2.8-1.2-2.8-2.8c0-1.5,1.2-2.8,2.8-2.8S494.4,500.3,494.4,501.8z"/>
					</g>
					<rect x="471.5" y="470.3" class="st3" width="11.3" height="11.3"/>
				</g>
			</g>
			<g>
				<circle class="st1" cx="663.5" cy="488" r="56.2"/>
				<g>
					<g>
						
							<rect x="649.3" y="468.2" transform="matrix(0.7071 0.7071 -0.7071 0.7071 542.4635 -318.8549)" class="st6" width="13.7" height="54.4"/>
						<polyline class="st6" points="675.1,465.6 695.3,457 684.3,481.2 						"/>
						
							<rect x="655.2" y="462.3" transform="matrix(0.7071 0.7071 -0.7071 0.7071 540.0238 -324.7431)" class="st6" width="13.7" height="54.4"/>
						<line class="st13" x1="680.9" y1="460.3" x2="694.4" y2="473.7"/>
						<line class="st13" x1="680.9" y1="470.9" x2="643.4" y2="508.3"/>
					</g>
					<g>
						
							<rect x="664" y="468.2" transform="matrix(0.7071 -0.7071 0.7071 0.7071 -153.7907 619.4722)" class="st6" width="13.7" height="54.4"/>
						<polyline class="st6" points="641.1,477.3 632.5,457 656.6,468 						"/>
						
							<rect x="658.1" y="462.3" transform="matrix(0.7071 -0.7071 0.7071 0.7071 -151.3517 613.5839)" class="st6" width="13.7" height="54.4"/>
						<line class="st13" x1="635.7" y1="471.4" x2="649.1" y2="458"/>
						<line class="st13" x1="646.3" y1="471.4" x2="683.8" y2="508.9"/>
					</g>
				</g>
			</g>
			<g>
				<circle class="st1" cx="136.5" cy="664" r="56.2"/>
				<g>
					<polyline class="st3" points="145,680.5 169.5,680.5 169.5,683 					"/>
					<path class="st2" d="M142.8,683.8h-28.7c-4.4,0-8-3.6-8-8v-28.7c0-4.4,3.6-8,8-8h28.7c4.4,0,8,3.6,8,8v28.7
						C150.8,680.2,147.2,683.8,142.8,683.8z"/>
					<path class="st2" d="M130.3,671.3h-3.7c-4.4,0-8-3.6-8-8v-3.7c0-4.4,3.6-8,8-8h3.7c4.4,0,8,3.6,8,8v3.7
						C138.3,667.7,134.7,671.3,130.3,671.3z"/>
					<line class="st13" x1="121.3" y1="669.4" x2="136.5" y2="654.5"/>
				</g>
			</g>
			<g>
				<circle class="st1" cx="312.2" cy="664" r="56.2"/>
				<g>
					<path class="st0" d="M315.8,697.1h-7.1c-0.5,0-1-0.5-1-1v-38.5c0-0.5,0.5-1,1-1h7.1c0.5,0,1,0.5,1,1v38.5
						C316.8,696.6,316.4,697.1,315.8,697.1z"/>
					<polygon class="st6" points="280.9,683.5 312,629.7 343.1,683.5 					"/>
					<g>
						<line class="st14" x1="312" y1="653" x2="312" y2="664"/>
						<circle class="st1" cx="312" cy="672.6" r="3"/>
					</g>
				</g>
			</g>
			<g>
				<circle class="st1" cx="487.8" cy="664" r="56.2"/>
				<g>
					<path class="st0" d="M491.5,704.6h-7.1c-0.6,0-1-0.5-1-1v-68.5c0-0.5,0.4-1,1-1h7.1c0.6,0,1,0.5,1,1v68.5
						C492.5,704.1,492.1,704.6,491.5,704.6z"/>
					<rect x="459.7" y="639" class="st3" width="56.6" height="14.5"/>
					<line class="st13" x1="481" y1="696.5" x2="496" y2="696.5"/>
					<path class="st3" d="M459.3,674.1c0-2.7,4.8-10,4.8-10s4.8,7.3,4.8,10s-2.2,4.8-4.8,4.8S459.3,676.8,459.3,674.1z"/>
					<path class="st15" d="M465.5,639c8,0,9.2,3,11.3,6.5c3,5,9.5,4,13.3,0.8c3.7-3.3,11.7,2.6,17.1,0c5.3-2.6,3.7-7.3,3.7-7.3"/>
				</g>
			</g>
			<g>
				<circle class="st1" cx="663.5" cy="664" r="56.2"/>
				<g>
					<path class="st0" d="M668.5,665.8h-10.8c-0.1,9.7-1.4,17.5-2.2,25c-0.8,7.8,1.4,13.7,7.5,13.7c6.1,0,8.3-5.9,7.5-13.7
						C670,683.2,668.6,676,668.5,665.8z"/>
					<path class="st3" d="M677.6,659c0-0.2,0-0.5,0-0.7v-25.7h-28.3v25.7c0,0.2,0,0.5,0,0.7H677.6z"/>
					<line class="st3" x1="655.5" y1="633" x2="655.5" y2="643"/>
					<line class="st3" x1="671.5" y1="633" x2="671.5" y2="636"/>
					<line class="st3" x1="660.5" y1="633" x2="660.5" y2="640"/>
					<polygon class="st3" points="649.4,659.5 677.6,659.5 668.2,665.5 659,665.5 					"/>
					<line class="st3" x1="650" y1="652.5" x2="677" y2="652.5"/>
					<path class="st1" d="M659.7,696.9c0-1.9,1.5-3.4,3.4-3.4c1.9,0,3.4,1.5,3.4,3.4s-1.5,3.4-3.4,3.4
						C661.3,700.3,659.7,698.8,659.7,696.9z"/>
				</g>
			</g>
		</g>
	</g>
</g>
</svg>
